<?xml version="1.0" encoding="UTF-8"?>
<svg id="Layer_2" data-name="Layer 2" xmlns="http://www.w3.org/2000/svg" viewBox="0 0 413.63 421.5">
  <defs>
    <style>
      .cls-1 {
        fill: #0a0a0a;
        fill-rule: evenodd;
      }
      .background {
        fill: #ffffff;
      }
    </style>
  </defs>
  <rect class="background" width="100%" height="100%"/>
  <g id="Layer_1-2" data-name="Layer 1">
    <path class="cls-1" d="M47.61,225.71c0-22.4,4.41-44.59,12.99-65.28,8.57-20.7,21.14-39.5,36.98-55.34,15.84-15.84,34.65-28.41,55.34-36.98s42.88-12.99,65.28-12.99v86.72c-6.35-1.29-13-1.73-19.84-1.21-34.53,2.65-62.61,30.74-65.25,65.27-.52,6.83-.08,13.47,1.21,19.81H47.61ZM412.67,190.35c9.62,103.31-53.86,193.15-143.82,221.97v-64.17c15.6-8.11,29.87-18.68,42.29-31.35,15.53-15.84,27.85-34.65,36.25-55.34,8.4-20.7,12.73-42.88,12.73-65.28h-85.01c1.52,7.66,1.83,15.77.73,24.11-4.11,31.02-28.46,56.31-59.47,60.51-8.12,1.1-16.01.77-23.47-.77v141.48C85.16,414.19,0,322.74,0,210.99,0,89.14,101.24-8.58,222.59.6c100.82,7.63,180.71,89.08,190.08,189.75Z"/>
  </g>
</svg>